<?xml version="1.0" encoding="UTF-8"?>
<svg id="_Слой_1" data-name="Слой 1" xmlns="http://www.w3.org/2000/svg" viewBox="0 0 600.96 80.93">
  <defs>
    <style>
      .cls-1 {
        fill: #1a1a1a;
      }
    </style>
  </defs>
  <path class="cls-1" d="m100.13,24.09c-2.98-1.8-6.6-2.7-10.85-2.7-3.01,0-5.85.58-8.51,1.73-2.66,1.15-4.87,2.81-6.65,4.96-.75.91-1.37,1.92-1.91,2.99.28-4.05.8-7.39,1.56-9.99.89-3.04,2.32-5.33,4.3-6.87,1.98-1.53,4.62-2.57,7.93-3.1l18.75-2.86c.22-.03.36-.23.33-.45l-1.12-7.46c-.03-.22-.23-.36-.45-.33l-19.01,2.78c-7.44,1-12.88,3.99-16.3,8.95-3.43,4.96-5.14,12.37-5.14,22.24s2.04,17.75,6.11,23.12c4.08,5.38,9.89,8.06,17.45,8.06,4.61,0,8.61-.94,12.01-2.83,3.4-1.89,6.04-4.55,7.93-7.97,1.89-3.42,2.83-7.41,2.83-11.96,0-4.08-.8-7.69-2.39-10.85-1.59-3.16-3.89-5.64-6.87-7.44Zm-4.43,28.93c-2.27,2.48-5.42,3.72-9.44,3.72-4.55,0-7.86-1.61-9.92-4.83-1.71-2.66-2.66-6.53-2.87-11.58,0-.05,0-.1.02-.15.52-1.8,1.27-3.4,2.28-4.79,1.33-1.83,2.94-3.26,4.83-4.3,1.89-1.03,3.99-1.55,6.29-1.55,3.9,0,6.91,1.17,9.04,3.5,2.13,2.33,3.19,5.6,3.19,9.79s-1.14,7.71-3.41,10.19Z"/>
  <path class="cls-1" d="m171.4,21.12c-3.52-2.01-7.61-3.01-12.27-3.01s-8.68,1.01-12.23,3.01c-3.54,2.01-6.31,4.78-8.28,8.33-1.15,2.06-1.96,4.29-2.44,6.68-.04.18-.19.32-.38.32h-7.9c-.22,0-.4-.18-.4-.4v-16.13c0-.22-.18-.4-.4-.4h-9.13c-.22,0-.4.18-.4.4v43.42c0,.22.18.4.4.4h9.13c.22,0,.4-.18.4-.4v-18.34c0-.22.18-.4.4-.4h7.56c.2,0,.36.15.39.35.37,3.25,1.29,6.21,2.77,8.86,1.98,3.54,4.74,6.32,8.28,8.33,3.54,2.01,7.62,3.01,12.23,3.01s8.76-1,12.27-3.01c3.51-2.01,6.26-4.78,8.24-8.33,1.98-3.54,2.97-7.62,2.97-12.23s-.99-8.59-2.97-12.14c-1.98-3.54-4.73-6.32-8.24-8.33Zm-.45,28.4c-1.09,2.27-2.63,4.06-4.61,5.36-1.98,1.3-4.3,1.95-6.95,1.95s-5.08-.65-7.09-1.95c-2.01-1.3-3.56-3.09-4.65-5.36-1.09-2.27-1.64-4.92-1.64-7.93s.55-5.57,1.64-7.84c1.09-2.27,2.64-4.06,4.65-5.36,2.01-1.3,4.37-1.95,7.09-1.95s4.97.65,6.95,1.95c1.98,1.3,3.51,3.09,4.61,5.36,1.09,2.27,1.64,4.89,1.64,7.84s-.55,5.66-1.64,7.93Z"/>
  <path class="cls-1" d="m227.79,21.12c-3.34-2.01-7.07-3.01-11.21-3.01-3.19,0-6.08.65-8.68,1.95-2.6,1.3-4.73,3.07-6.38,5.32-.36.49-.67,1-.97,1.52l-1.25-7.04c-.03-.19-.2-.33-.39-.33h-7.8c-.22,0-.4.18-.4.4v60.61c0,.22.18.4.4.4h9.13c.22,0,.4-.18.4-.4v-21.7c0-.37.47-.54.7-.25,1.28,1.65,2.87,3.04,4.79,4.14,2.84,1.62,6.2,2.44,10.1,2.44,4.25,0,8.06-1,11.43-3.01,3.37-2.01,6.04-4.78,8.02-8.33,1.98-3.54,2.97-7.62,2.97-12.23s-.97-8.59-2.92-12.14c-1.95-3.54-4.59-6.32-7.93-8.33Zm-1.28,28.35c-1.18,2.3-2.82,4.11-4.92,5.4-2.1,1.3-4.59,1.95-7.49,1.95-2.42,0-4.67-.5-6.73-1.51-2.07-1-3.75-2.39-5.05-4.16-.71-.96-1.25-2.01-1.66-3.13-.02-.05-.03-.1-.03-.15v-5.58c0-3.19.61-5.97,1.82-8.33,1.21-2.36,2.86-4.21,4.96-5.54,2.1-1.33,4.5-1.99,7.22-1.99s5.18.65,7.22,1.95c2.04,1.3,3.62,3.1,4.74,5.4,1.12,2.3,1.68,4.9,1.68,7.8s-.59,5.58-1.77,7.89Z"/>
  <path class="cls-1" d="m283.72,21.12c-3.63-2.01-7.81-3.01-12.54-3.01s-8.82,1.01-12.45,3.01c-3.63,2.01-6.48,4.78-8.55,8.33-2.07,3.54-3.1,7.59-3.1,12.14s1.03,8.68,3.1,12.23c2.07,3.54,4.92,6.32,8.55,8.33,3.63,2.01,7.78,3.01,12.45,3.01s8.9-1,12.54-3.01c3.63-2.01,6.47-4.78,8.51-8.33,2.04-3.54,3.06-7.62,3.06-12.23s-1.02-8.59-3.06-12.14c-2.04-3.54-4.87-6.32-8.51-8.33Zm-.44,28.4c-1.15,2.27-2.76,4.06-4.83,5.36-2.07,1.3-4.49,1.95-7.27,1.95s-5.11-.65-7.18-1.95c-2.07-1.3-3.68-3.09-4.83-5.36-1.15-2.27-1.73-4.92-1.73-7.93s.58-5.57,1.73-7.84c1.15-2.27,2.76-4.06,4.83-5.36,2.07-1.3,4.46-1.95,7.18-1.95s5.2.65,7.27,1.95c2.07,1.3,3.68,3.09,4.83,5.36,1.15,2.27,1.73,4.89,1.73,7.84s-.58,5.66-1.73,7.93Z"/>
  <path class="cls-1" d="m360.23,8.89V.4c0-.22-.18-.4-.4-.4h-35c-.22,0-.4.18-.4.4v62.95c0,.22.18.4.4.4h9.13c.22,0,.4-.18.4-.4V9.68c0-.22.18-.4.4-.4h25.07c.22,0,.4-.18.4-.4Z"/>
  <path class="cls-1" d="m402.98,19.53h-32.91c-.2,0-.38.16-.39.36l-2.8,30.47c-.12,1.89-.58,3.22-1.37,3.99s-1.99,1.15-3.59,1.15h-2.79c-.22,0-.4.18-.4.4v7.45c0,.22.18.4.4.4h4.48c4.02,0,7-.84,8.95-2.52,1.95-1.68,3.13-4.65,3.54-8.9l2.35-24.36c.02-.2.19-.36.39-.36h14.22c.22,0,.4.18.4.4v35.35c0,.22.18.4.4.4h9.13c.22,0,.4-.18.4-.4V19.93c0-.22-.18-.4-.4-.4Z"/>
  <path class="cls-1" d="m444.98,20.28c-3.16-1.45-6.84-2.17-11.03-2.17-3.96,0-7.56.68-10.81,2.04-3.13,1.31-5.87,3.11-8.23,5.4-.16.15-.16.4-.02.56l5.12,5.6c.16.17.42.17.58,0,1.59-1.74,3.46-3.11,5.61-4.11,2.27-1.06,4.74-1.59,7.4-1.59,3.66,0,6.56.93,8.68,2.79,1.98,1.73,3.03,4.09,3.17,7.06.01.23-.18.42-.4.42h-10.91c-4.14,0-7.78.58-10.94,1.73-3.16,1.15-5.63,2.81-7.4,4.96-1.77,2.16-2.66,4.77-2.66,7.84,0,2.84.71,5.32,2.13,7.44,1.42,2.13,3.42,3.81,6.02,5.05,2.6,1.24,5.58,1.86,8.95,1.86,3.78,0,7.15-.78,10.1-2.35,1.9-1.01,3.52-2.27,4.88-3.79.25-.27.7-.12.7.25v4.07c0,.22.18.4.4.4h8.33c.22,0,.4-.18.4-.4v-27.07c0-3.78-.89-7.03-2.66-9.75-1.77-2.72-4.24-4.8-7.4-6.25Zm.49,29.12c0,.06-.01.11-.03.17-.3.69-.65,1.36-1.07,1.99-1.27,1.86-2.97,3.32-5.09,4.39-2.13,1.06-4.46,1.59-7,1.59s-4.82-.63-6.47-1.91c-1.65-1.27-2.48-3-2.48-5.18,0-2.42,1.08-4.25,3.23-5.49,2.15-1.24,4.98-1.86,8.46-1.86h10.06c.22,0,.4.18.4.4v5.91Z"/>
  <path class="cls-1" d="m497.96,19.53h-31.19c-.22,0-.4.18-.4.4v43.42c0,.22.18.4.4.4h9.13c.22,0,.4-.18.4-.4V27.99c0-.22.18-.4.4-.4h21.27c.22,0,.4-.18.4-.4v-7.27c0-.22-.18-.4-.4-.4Z"/>
  <path class="cls-1" d="m539.34,21.12c-3.63-2.01-7.81-3.01-12.54-3.01s-8.82,1.01-12.45,3.01c-3.63,2.01-6.48,4.78-8.55,8.33-2.07,3.54-3.1,7.59-3.1,12.14s1.03,8.68,3.1,12.23c2.07,3.54,4.92,6.32,8.55,8.33,3.63,2.01,7.78,3.01,12.45,3.01s8.9-1,12.54-3.01c3.63-2.01,6.47-4.78,8.51-8.33,2.04-3.54,3.06-7.62,3.06-12.23s-1.02-8.59-3.06-12.14c-2.04-3.54-4.87-6.32-8.51-8.33Zm-.44,28.4c-1.15,2.27-2.76,4.06-4.83,5.36-2.07,1.3-4.49,1.95-7.27,1.95s-5.11-.65-7.18-1.95c-2.07-1.3-3.68-3.09-4.83-5.36-1.15-2.27-1.73-4.92-1.73-7.93s.58-5.57,1.73-7.84c1.15-2.27,2.76-4.06,4.83-5.36,2.07-1.3,4.46-1.95,7.18-1.95s5.2.65,7.27,1.95c2.07,1.3,3.68,3.09,4.83,5.36,1.15,2.27,1.73,4.89,1.73,7.84s-.58,5.66-1.73,7.93Z"/>
  <path class="cls-1" d="m600.56,19.53h-32.91c-.2,0-.38.16-.39.36l-2.8,30.47c-.12,1.89-.58,3.22-1.37,3.99-.8.77-1.99,1.15-3.59,1.15h-2.79c-.22,0-.4.18-.4.4v7.45c0,.22.18.4.4.4h4.48c4.02,0,7-.84,8.95-2.52,1.95-1.68,3.13-4.65,3.54-8.9l2.35-24.36c.02-.2.19-.36.39-.36h14.22c.22,0,.4.18.4.4v35.35c0,.22.18.4.4.4h9.13c.22,0,.4-.18.4-.4V19.93c0-.22-.18-.4-.4-.4Z"/>
  <path class="cls-1" d="m19.12,18.24c-.07-.1-.19-.16-.31-.16H6.21c-.31,0-.49.35-.31.6l16.52,21.67c.09.13.09.3,0,.44L5.9,62.45c-.18.25,0,.6.31.6h12.63c.12,0,.24-.06.31-.16l16.77-22.09c.09-.13.09-.3,0-.43l-16.79-22.12Z"/>
</svg>