<svg width="578" height="80" viewBox="0 0 578 80" fill="none" xmlns="http://www.w3.org/2000/svg">
<path d="M92.2352 24.3613C89.3827 22.5978 85.9324 21.7161 81.8593 21.7161C78.9819 21.7161 76.2665 22.2783 73.738 23.4157C71.2094 24.553 69.0794 26.1631 67.3854 28.2845C66.6629 29.179 66.0775 30.1758 65.5543 31.2236C65.8284 27.2494 66.3142 23.9779 67.0491 21.4221C67.8961 18.4446 69.2662 16.1955 71.1596 14.6876C73.0529 13.1797 75.569 12.1702 78.7328 11.6462L96.6446 8.83485C96.8564 8.79652 96.9934 8.60483 96.956 8.38759L95.8848 1.07801C95.8599 0.860767 95.6606 0.7202 95.4613 0.745758L77.2879 3.46768C70.1755 4.45166 64.9814 7.37805 61.7054 12.2341C58.4295 17.1029 56.7977 24.3613 56.7977 34.035C56.7977 43.7087 58.7409 51.44 62.6396 56.7049C66.5384 61.9699 72.0938 64.6151 79.3183 64.6151C83.7152 64.6151 87.5393 63.695 90.7903 61.8421C94.0413 59.9891 96.5574 57.3822 98.3636 54.0213C100.17 50.6605 101.067 46.7501 101.067 42.2902C101.067 38.2904 100.307 34.7506 98.7746 31.6453C97.255 28.5528 95.0627 26.112 92.2103 24.3485L92.2352 24.3613ZM88.0001 52.7179C85.8328 55.1459 82.8184 56.3599 78.982 56.3599C74.6348 56.3599 71.471 54.7881 69.5029 51.6317C67.8712 49.0247 66.9619 45.2294 66.7501 40.2711C66.7501 40.22 66.7501 40.1689 66.7626 40.1178C67.2608 38.3543 67.9833 36.7825 68.9424 35.4279C70.2129 33.6389 71.745 32.2332 73.5511 31.2108C75.3572 30.2013 77.3627 29.6902 79.5674 29.6902C83.2917 29.6902 86.1691 30.8403 88.1994 33.1149C90.2298 35.4024 91.2512 38.5971 91.2512 42.7119C91.2512 46.8268 90.1675 50.2643 87.9877 52.7051L88.0001 52.7179Z" fill="#F6F6F6"/>
<path d="M164.447 21.2949C161.011 19.3595 157.015 18.3917 152.472 18.3917C147.928 18.3917 143.996 19.3595 140.534 21.2949C137.072 23.2304 134.374 25.9074 132.44 29.3259C131.32 31.3116 130.531 33.4607 130.06 35.7732C130.022 35.9492 129.869 36.0749 129.691 36.0749H121.979C121.763 36.0749 121.597 35.8989 121.597 35.6978V20.1512C121.597 19.9376 121.419 19.7742 121.215 19.7742H112.307C112.09 19.7742 111.925 19.9502 111.925 20.1512V62.0152C111.925 62.2288 112.103 62.3922 112.307 62.3922H121.215C121.432 62.3922 121.597 62.2163 121.597 62.0152V44.332C121.597 44.1184 121.775 43.955 121.979 43.955H129.36C129.551 43.955 129.717 44.1058 129.742 44.2943C130.098 47.4238 131.002 50.2767 132.453 52.8406C134.387 56.259 137.085 58.936 140.547 60.8715C144.008 62.807 147.979 63.7747 152.484 63.7747C156.989 63.7747 161.036 62.807 164.46 60.8715C167.883 58.936 170.569 56.259 172.503 52.8406C174.437 49.4221 175.405 45.4883 175.405 41.0518C175.405 36.6153 174.437 32.7695 172.503 29.351C170.569 25.9325 167.883 23.2555 164.46 21.3201L164.447 21.2949ZM163.76 48.668C162.691 50.8548 161.189 52.5892 159.267 53.8334C157.333 55.0902 155.068 55.7186 152.472 55.7186C149.875 55.7186 147.508 55.0902 145.548 53.8334C143.588 52.5766 142.074 50.8548 141.005 48.668C139.936 46.4812 139.401 43.9299 139.401 41.0267C139.401 38.1235 139.936 35.6601 141.005 33.4733C142.074 31.2865 143.588 29.5521 145.548 28.3079C147.508 27.0511 149.812 26.4227 152.472 26.4227C155.131 26.4227 157.333 27.0511 159.267 28.3079C161.202 29.5647 162.704 31.2865 163.76 33.4733C164.829 35.6601 165.363 38.1863 165.363 41.0267C165.363 43.867 164.829 46.4812 163.76 48.668Z" fill="#F6F6F6"/>
<path d="M220.137 21.3332C216.939 19.3722 213.353 18.3917 209.393 18.3917C206.332 18.3917 203.558 19.0284 201.072 20.289C198.585 21.5624 196.537 23.2942 194.962 25.4844C194.612 25.9556 194.313 26.4522 194.025 26.9615L192.826 20.0853C192.788 19.8943 192.638 19.767 192.451 19.767H184.967C184.755 19.767 184.593 19.9452 184.593 20.149V79.3608C184.593 79.5772 184.767 79.7428 184.967 79.7428H193.713C193.925 79.7428 194.088 79.5645 194.088 79.3608V58.1591C194.088 57.7899 194.538 57.6243 194.762 57.9172C195.987 59.5344 197.511 60.8842 199.36 61.9665C202.084 63.5582 205.307 64.3477 209.043 64.3477C213.116 64.3477 216.776 63.3672 220 61.4062C223.223 59.4452 225.784 56.733 227.683 53.2694C229.582 49.8058 230.532 45.8202 230.532 41.3252C230.532 36.8302 229.595 32.9336 227.733 29.4701C225.872 26.0065 223.335 23.2942 220.137 21.3332ZM218.9 49.0291C217.763 51.2829 216.202 53.0402 214.19 54.3135C212.179 55.5869 209.792 56.2236 207.019 56.2236C204.695 56.2236 202.546 55.7397 200.559 54.7465C198.573 53.766 196.961 52.4162 195.724 50.6844C195.05 49.7421 194.525 48.7234 194.138 47.6283C194.125 47.5774 194.113 47.5392 194.113 47.4883V42.0382C194.113 38.9185 194.687 36.2062 195.849 33.9014C197.011 31.5966 198.598 29.7884 200.609 28.4896C202.621 27.1907 204.92 26.5413 207.531 26.5413C210.142 26.5413 212.503 27.178 214.452 28.4514C216.401 29.7247 217.926 31.482 219 33.7359C220.075 35.9897 220.612 38.5237 220.612 41.3506C220.612 44.1775 220.05 46.8007 218.913 49.0545L218.9 49.0291Z" fill="#F6F6F6"/>
<path d="M273.604 21.2965C270.075 19.36 266.028 18.3917 261.436 18.3917C256.845 18.3917 252.886 19.36 249.357 21.2965C245.828 23.2331 243.071 25.9115 241.06 29.3319C239.048 32.7523 238.049 36.6505 238.049 41.0392C238.049 45.4279 239.048 49.4141 241.06 52.8345C243.071 56.2549 245.828 58.9334 249.357 60.8699C252.886 62.8064 256.908 63.7747 261.436 63.7747C265.965 63.7747 270.075 62.8064 273.604 60.8699C277.133 58.9334 279.878 56.2549 281.851 52.8345C283.825 49.4141 284.824 45.4782 284.824 41.0392C284.824 36.6002 283.837 32.7523 281.851 29.3319C279.878 25.9115 277.121 23.2331 273.604 21.2965ZM273.174 48.6848C272.061 50.8728 270.493 52.6082 268.482 53.8531C266.471 55.1106 264.131 55.7393 261.436 55.7393C258.742 55.7393 256.478 55.1106 254.48 53.8531C252.469 52.5956 250.913 50.8728 249.8 48.6848C248.687 46.4967 248.117 43.944 248.117 41.0392C248.117 38.1344 248.674 35.6697 249.8 33.4817C250.913 31.2936 252.481 29.5583 254.48 28.3134C256.491 27.0559 258.806 26.4271 261.436 26.4271C264.067 26.4271 266.483 27.0559 268.482 28.3134C270.48 29.5709 272.049 31.2936 273.174 33.4817C274.287 35.6697 274.857 38.1973 274.857 41.0392C274.857 43.8811 274.3 46.4967 273.174 48.6848Z" fill="#F6F6F6"/>
<path d="M311.935 62.9343H320.894C321.111 62.9343 321.278 62.7586 321.278 62.5578V10.8944C321.278 10.6811 321.456 10.5179 321.661 10.5179H346.25C346.467 10.5179 346.633 10.3423 346.633 10.1415V1.95966C346.633 1.74633 346.454 1.58319 346.25 1.58319H311.935C311.718 1.58319 311.552 1.75888 311.552 1.95966V62.5578C311.552 62.7711 311.731 62.9343 311.935 62.9343Z" fill="#F6F6F6"/>
<path d="M352.878 49.9823C352.764 51.8145 352.32 53.1034 351.546 53.8489C350.772 54.5944 349.605 54.9609 348.058 54.9609H345.343C345.127 54.9609 344.962 55.1378 344.962 55.34V62.5552C344.962 62.77 345.14 62.9343 345.343 62.9343H349.694C353.601 62.9343 356.506 62.1256 358.409 60.4829C360.299 58.8528 361.453 55.9718 361.859 51.8524L364.155 28.2355C364.18 28.0333 364.345 27.8943 364.535 27.8943H378.375C378.59 27.8943 378.755 28.0712 378.755 28.2734V62.5426C378.755 62.7574 378.933 62.9216 379.136 62.9216H388.015C388.231 62.9216 388.396 62.7447 388.396 62.5426V20.4517C388.396 20.2368 388.218 20.0726 388.015 20.0726H355.986C355.783 20.0726 355.618 20.2242 355.605 20.4264L352.878 49.9696V49.9823Z" fill="#F6F6F6"/>
<path d="M427.855 20.5172C424.76 19.096 421.18 18.3917 417.079 18.3917C413.206 18.3917 409.69 19.0575 406.519 20.3892C403.462 21.6696 400.787 23.4366 398.481 25.6902C398.328 25.8438 398.328 26.0871 398.468 26.2407L403.474 31.7338C403.627 31.9002 403.882 31.9002 404.035 31.7338C405.589 30.0308 407.423 28.6864 409.512 27.7004C411.729 26.6505 414.149 26.1383 416.747 26.1383C420.327 26.1383 423.155 27.0474 425.231 28.8784C427.167 30.5814 428.186 32.899 428.326 35.8183C428.326 36.036 428.148 36.2409 427.932 36.2409H417.27C413.232 36.2409 409.665 36.8043 406.582 37.9438C403.487 39.0706 401.079 40.6968 399.347 42.8223C397.615 44.935 396.749 47.5086 396.749 50.5176C396.749 53.2962 397.436 55.7418 398.825 57.8289C400.213 59.916 402.175 61.5677 404.71 62.7841C407.245 64.0005 410.162 64.6151 413.448 64.6151C417.142 64.6151 420.429 63.8469 423.32 62.3104C425.18 61.3244 426.76 60.0824 428.097 58.5843C428.339 58.3154 428.772 58.4691 428.772 58.8276V62.8225C428.772 63.0402 428.951 63.2067 429.154 63.2067H437.294C437.511 63.2067 437.676 63.0274 437.676 62.8225V36.2281C437.676 32.5148 436.81 29.3266 435.078 26.6505C433.345 23.9872 430.938 21.9385 427.842 20.5172H427.855ZM422.276 55.5497C420.199 56.5997 417.919 57.1118 415.435 57.1118C412.951 57.1118 410.735 56.4844 409.117 55.2424C407.5 54.0004 406.697 52.2974 406.697 50.1463C406.697 47.7647 407.754 45.9721 409.856 44.7557C411.958 43.5393 414.722 42.9247 418.123 42.9247H427.957C428.174 42.9247 428.339 43.104 428.339 43.3088V49.1092C428.339 49.1092 428.339 49.2244 428.301 49.2756C428.008 49.9542 427.677 50.6201 427.256 51.2347C426.021 53.0657 424.352 54.4998 422.276 55.5497Z" fill="#F6F6F6"/>
<path d="M448.913 62.9216H457.744C457.958 62.9216 458.122 62.7447 458.122 62.5424V28.2632C458.122 28.0483 458.299 27.884 458.5 27.884H479.061C479.276 27.884 479.439 27.707 479.439 27.5048V20.4518C479.439 20.2369 479.263 20.0726 479.061 20.0726H448.913C448.698 20.0726 448.535 20.2495 448.535 20.4518V62.5551C448.535 62.77 448.711 62.9343 448.913 62.9343V62.9216Z" fill="#F6F6F6"/>
<path d="M519.171 21.3503C515.642 19.3779 511.594 18.3917 507.003 18.3917C502.411 18.3917 498.452 19.3779 494.923 21.3503C491.395 23.3227 488.637 26.0508 486.626 29.5345C484.615 33.0183 483.616 36.9887 483.616 41.4586C483.616 45.9285 484.615 49.9886 486.626 53.4723C488.637 56.9561 491.395 59.6841 494.923 61.6565C498.452 63.6289 502.475 64.6151 507.003 64.6151C511.531 64.6151 515.642 63.6289 519.171 61.6565C522.7 59.6841 525.445 56.9561 527.418 53.4723C529.391 49.9886 530.39 45.9798 530.39 41.4586C530.39 36.9374 529.404 33.0183 527.418 29.5345C525.445 26.0508 522.687 23.3227 519.171 21.3503ZM518.741 49.2458C517.628 51.4743 516.059 53.2418 514.061 54.5098C512.05 55.7905 509.71 56.4309 507.016 56.4309C504.321 56.4309 502.057 55.7905 500.046 54.5098C498.035 53.229 496.479 51.4743 495.366 49.2458C494.253 47.0172 493.684 44.4172 493.684 41.4586C493.684 38.5 494.24 35.9897 495.366 33.7611C496.492 31.5325 498.048 29.7651 500.046 28.4971C502.045 27.2291 504.372 26.5759 507.016 26.5759C509.659 26.5759 512.062 27.2163 514.061 28.4971C516.072 29.7779 517.628 31.5325 518.741 33.7611C519.854 35.9897 520.423 38.564 520.423 41.4586C520.423 44.3532 519.867 47.0172 518.741 49.2458Z" fill="#F6F6F6"/>
<path d="M542.482 49.9823C542.368 51.8145 541.924 53.1034 541.15 53.8489C540.376 54.5944 539.209 54.9609 537.662 54.9609H534.947C534.731 54.9609 534.566 55.1378 534.566 55.34V62.5552C534.566 62.77 534.744 62.9343 534.947 62.9343H539.298C543.205 62.9343 546.11 62.1256 548.013 60.4829C549.903 58.8528 551.057 55.9718 551.463 51.8524L553.759 28.2355C553.784 28.0333 553.949 27.8943 554.139 27.8943H567.979C568.194 27.8943 568.359 28.0712 568.359 28.2734V62.5426C568.359 62.7574 568.537 62.9216 568.74 62.9216H577.619C577.835 62.9216 578 62.7447 578 62.5426V20.4517C578 20.2368 577.822 20.0726 577.619 20.0726H545.59C545.387 20.0726 545.222 20.2242 545.209 20.4264L542.482 49.9696V49.9823Z" fill="#F6F6F6"/>
<path d="M0.416954 17.5513H12.8288C12.9698 17.5513 13.0967 17.6206 13.1672 17.7316L31.6659 41.7017C31.7646 41.8404 31.7646 42.0346 31.6659 42.1733L13.1954 66.1156C13.1108 66.2266 12.9839 66.296 12.857 66.296H0.416954C0.0785634 66.296 -0.118833 65.9214 0.0785611 65.644L18.2811 42.1594C18.3798 42.0207 18.3798 41.8265 18.2811 41.6878L0.0785611 18.2032C-0.118833 17.9258 0.0785634 17.5513 0.416954 17.5513Z" fill="#F6F6F6"/>
</svg>
