<svg width="512" height="512" viewBox="0 0 512 512" xmlns="http://www.w3.org/2000/svg">
  <defs>
    <linearGradient id="d" x1="0" y1="0" x2="1" y2="1">
      <stop offset="0" stop-color="#262320"/>
      <stop offset="1" stop-color="#141210"/>
    </linearGradient>
    <radialGradient id="sheenD" cx=".22" cy=".12" r=".9">
      <stop offset="0" stop-color="#ffffff" stop-opacity=".06"/>
      <stop offset=".6" stop-color="#ffffff" stop-opacity="0"/>
    </radialGradient>
    <clipPath id="rd"><rect width="512" height="512" rx="115"/></clipPath>
  </defs>
  <g clip-path="url(#rd)">
    <rect width="512" height="512" fill="url(#d)"/>
    <rect width="512" height="512" fill="url(#sheenD)"/>
    <g transform="translate(214 250) scale(9)" fill="#FF5C00" opacity="0.12">
      <path d="m19.12,18.24c-.07-.1-.19-.16-.31-.16H6.21c-.31,0-.49.35-.31.6l16.52,21.67c.09.13.09.3,0,.44L5.9,62.45c-.18.25,0,.6.31.6h12.63c.12,0,.24-.06.31-.16l16.77-22.09c.09-.13.09-.3,0-.43l-16.79-22.12Z"/>
    </g>
    <g transform="translate(151 53.5) scale(5)" fill="#FF5C00">
      <path d="m19.12,18.24c-.07-.1-.19-.16-.31-.16H6.21c-.31,0-.49.35-.31.6l16.52,21.67c.09.13.09.3,0,.44L5.9,62.45c-.18.25,0,.6.31.6h12.63c.12,0,.24-.06.31-.16l16.77-22.09c.09-.13.09-.3,0-.43l-16.79-22.12Z"/>
    </g>
  </g>
</svg>
