<svg width="512" height="512" viewBox="0 0 512 512" xmlns="http://www.w3.org/2000/svg">
  <defs>
    <linearGradient id="g" x1="0" y1="0" x2="1" y2="1">
      <stop offset="0" stop-color="#FF7A2E"/>
      <stop offset=".52" stop-color="#FF5C00"/>
      <stop offset="1" stop-color="#E84E00"/>
    </linearGradient>
    <radialGradient id="sheen" cx=".2" cy=".1" r=".9">
      <stop offset="0" stop-color="#ffffff" stop-opacity=".42"/>
      <stop offset=".55" stop-color="#ffffff" stop-opacity="0"/>
    </radialGradient>
    <clipPath id="r"><rect width="512" height="512" rx="115"/></clipPath>
  </defs>
  <g clip-path="url(#r)">
    <rect width="512" height="512" fill="url(#g)"/>
    <rect width="512" height="512" fill="url(#sheen)"/>
    <g transform="translate(214 250) scale(9)" fill="#ffffff" opacity="0.15">
      <path d="m19.12,18.24c-.07-.1-.19-.16-.31-.16H6.21c-.31,0-.49.35-.31.6l16.52,21.67c.09.13.09.3,0,.44L5.9,62.45c-.18.25,0,.6.31.6h12.63c.12,0,.24-.06.31-.16l16.77-22.09c.09-.13.09-.3,0-.43l-16.79-22.12Z"/>
    </g>
    <g transform="translate(151 53.5) scale(5)" fill="#ffffff">
      <path d="m19.12,18.24c-.07-.1-.19-.16-.31-.16H6.21c-.31,0-.49.35-.31.6l16.52,21.67c.09.13.09.3,0,.44L5.9,62.45c-.18.25,0,.6.31.6h12.63c.12,0,.24-.06.31-.16l16.77-22.09c.09-.13.09-.3,0-.43l-16.79-22.12Z"/>
    </g>
  </g>
</svg>
