<svg width="512" height="512" viewBox="0 0 512 512" xmlns="http://www.w3.org/2000/svg">
  <defs>
    <linearGradient id="gn" x1="0" y1="0" x2="1" y2="1">
      <stop offset="0" stop-color="#0A5A4E"/>
      <stop offset="1" stop-color="#004139"/>
    </linearGradient>
    <radialGradient id="sheenG" cx=".2" cy=".1" r=".9">
      <stop offset="0" stop-color="#C3E5AE" stop-opacity=".22"/>
      <stop offset=".6" stop-color="#C3E5AE" stop-opacity="0"/>
    </radialGradient>
    <clipPath id="rg"><rect width="512" height="512" rx="115"/></clipPath>
  </defs>
  <g clip-path="url(#rg)">
    <rect width="512" height="512" fill="url(#gn)"/>
    <rect width="512" height="512" fill="url(#sheenG)"/>
    <g transform="translate(214 250) scale(9)" fill="#C3E5AE" opacity="0.16">
      <path d="m19.12,18.24c-.07-.1-.19-.16-.31-.16H6.21c-.31,0-.49.35-.31.6l16.52,21.67c.09.13.09.3,0,.44L5.9,62.45c-.18.25,0,.6.31.6h12.63c.12,0,.24-.06.31-.16l16.77-22.09c.09-.13.09-.3,0-.43l-16.79-22.12Z"/>
    </g>
    <g transform="translate(151 53.5) scale(5)" fill="#C3E5AE">
      <path d="m19.12,18.24c-.07-.1-.19-.16-.31-.16H6.21c-.31,0-.49.35-.31.6l16.52,21.67c.09.13.09.3,0,.44L5.9,62.45c-.18.25,0,.6.31.6h12.63c.12,0,.24-.06.31-.16l16.77-22.09c.09-.13.09-.3,0-.43l-16.79-22.12Z"/>
    </g>
  </g>
</svg>
