<svg width="512" height="512" viewBox="0 0 512 512" xmlns="http://www.w3.org/2000/svg">
  <defs>
    <radialGradient id="atmoA" cx=".25" cy=".2" r=".9">
      <stop offset="0" stop-color="#FFCBA6"/>
      <stop offset="1" stop-color="#F1ECE4"/>
    </radialGradient>
    <linearGradient id="frost" x1="0" y1="0" x2="1" y2="1">
      <stop offset="0" stop-color="#ffffff" stop-opacity=".66"/>
      <stop offset="1" stop-color="#ffffff" stop-opacity=".42"/>
    </linearGradient>
    <clipPath id="rgl"><rect width="512" height="512" rx="115"/></clipPath>
  </defs>
  <g clip-path="url(#rgl)">
    <rect width="512" height="512" fill="url(#atmoA)"/>
    <circle cx="380" cy="150" r="150" fill="#FFB07A" opacity=".5"/>
    <rect width="512" height="512" fill="url(#frost)"/>
    <rect x="6" y="6" width="500" height="500" rx="110" fill="none" stroke="#ffffff" stroke-opacity=".75" stroke-width="3"/>
    <g transform="translate(214 250) scale(9)" fill="#FF5C00" opacity="0.10">
      <path d="m19.12,18.24c-.07-.1-.19-.16-.31-.16H6.21c-.31,0-.49.35-.31.6l16.52,21.67c.09.13.09.3,0,.44L5.9,62.45c-.18.25,0,.6.31.6h12.63c.12,0,.24-.06.31-.16l16.77-22.09c.09-.13.09-.3,0-.43l-16.79-22.12Z"/>
    </g>
    <g transform="translate(151 53.5) scale(5)" fill="#FF5C00">
      <path d="m19.12,18.24c-.07-.1-.19-.16-.31-.16H6.21c-.31,0-.49.35-.31.6l16.52,21.67c.09.13.09.3,0,.44L5.9,62.45c-.18.25,0,.6.31.6h12.63c.12,0,.24-.06.31-.16l16.77-22.09c.09-.13.09-.3,0-.43l-16.79-22.12Z"/>
    </g>
  </g>
</svg>
