<svg width="534" height="96" viewBox="0 0 534 96" xmlns="http://www.w3.org/2000/svg">
  <defs>
    <linearGradient id="lg" x1="0" y1="0" x2="1" y2="1">
      <stop offset="0" stop-color="#FF7A2E"/>
      <stop offset=".52" stop-color="#FF5C00"/>
      <stop offset="1" stop-color="#E84E00"/>
    </linearGradient>
    <radialGradient id="ls" cx=".2" cy=".1" r=".9">
      <stop offset="0" stop-color="#fff" stop-opacity=".4"/>
      <stop offset=".6" stop-color="#fff" stop-opacity="0"/>
    </radialGradient>
    <clipPath id="lt"><rect width="96" height="96" rx="26"/></clipPath>
  </defs>
  <g clip-path="url(#lt)">
    <rect width="96" height="96" fill="url(#lg)"/>
    <rect width="96" height="96" fill="url(#ls)"/>
    <g transform="translate(28.3 10) scale(0.94)" fill="#fff">
      <path d="m19.12,18.24c-.07-.1-.19-.16-.31-.16H6.21c-.31,0-.49.35-.31.6l16.52,21.67c.09.13.09.3,0,.44L5.9,62.45c-.18.25,0,.6.31.6h12.63c.12,0,.24-.06.31-.16l16.77-22.09c.09-.13.09-.3,0-.43l-16.79-22.12Z"/>
    </g>
  </g>
  <g transform="translate(70 17) scale(0.78)" fill="#1A1A1A">
    <path d="M92.2352 24.3613C89.3827 22.5978 85.9324 21.7161 81.8593 21.7161C78.9819 21.7161 76.2665 22.2784 73.738 23.4157C71.2094 24.553 69.0794 26.1632 67.3854 28.2845C66.6629 29.179 66.0775 30.1758 65.5543 31.2237C65.8284 27.2494 66.3142 23.978 67.0491 21.4222C67.8961 18.4447 69.2662 16.1956 71.1596 14.6877C73.0529 13.1797 75.569 12.1702 78.7328 11.6463L96.6446 8.83488C96.8564 8.79655 96.9934 8.60486 96.956 8.38762L95.8848 1.07804C95.8599 0.860798 95.6606 0.720231 95.4613 0.745789L77.2879 3.46771C70.1755 4.45169 64.9814 7.37808 61.7054 12.2341C58.4295 17.1029 56.7977 24.3613 56.7977 34.035C56.7977 43.7087 58.7409 51.44 62.6396 56.705C66.5384 61.9699 72.0938 64.6151 79.3183 64.6151C83.7152 64.6151 87.5393 63.6951 90.7903 61.8421C94.0413 59.9891 96.5574 57.3822 98.3636 54.0214C100.17 50.6605 101.067 46.7501 101.067 42.2903C101.067 38.2904 100.307 34.7507 98.7746 31.6454C97.255 28.5529 95.0627 26.1121 92.2103 24.3486L92.2352 24.3613ZM88.0001 52.7179C85.8328 55.1459 82.8184 56.3599 78.982 56.3599C74.6348 56.3599 71.471 54.7881 69.5029 51.6317C67.8712 49.0248 66.9619 45.2294 66.7501 40.2712C66.7501 40.2201 66.7501 40.1689 66.7626 40.1178C67.2608 38.3543 67.9833 36.7825 68.9424 35.4279C70.2129 33.6389 71.745 32.2332 73.5511 31.2109C75.3572 30.2013 77.3627 29.6902 79.5674 29.6902C83.2917 29.6902 86.1691 30.8403 88.1994 33.1149C90.2298 35.4024 91.2512 38.5971 91.2512 42.712C91.2512 46.8268 90.1675 50.2643 88.0001 52.7179Z"/>
    <path d="M164.447 21.2951C161.011 19.3596 157.015 18.3918 152.472 18.3918C147.928 18.3918 143.996 19.3596 140.534 21.2951C137.072 23.2305 134.374 25.9075 132.44 29.326C131.32 31.3117 130.531 33.4609 130.06 35.7734C130.022 35.9493 129.869 36.075 129.691 36.075H121.979C121.763 36.075 121.597 35.899 121.597 35.698V20.1514C121.597 19.9377 121.419 19.7743 121.215 19.7743H112.307C112.09 19.7743 111.925 19.9503 111.925 20.1514V62.0153C111.925 62.229 112.103 62.3923 112.307 62.3923H121.215C121.432 62.3923 121.597 62.2164 121.597 62.0153V44.3322C121.597 44.1185 121.775 43.9551 121.979 43.9551H129.36C129.551 43.9551 129.717 44.1059 129.742 44.2945C130.098 47.4239 131.002 50.2768 132.453 52.8407C134.387 56.2592 137.085 58.9361 140.547 60.8716C144.008 62.8071 147.979 63.7748 152.484 63.7748C156.989 63.7748 161.036 62.8071 164.46 60.8716C167.883 58.9361 170.569 56.2592 172.503 52.8407C174.437 49.4222 175.405 45.4884 175.405 41.0519C175.405 36.6154 174.437 32.7696 172.503 29.3511C170.569 25.9326 167.883 23.2557 164.46 21.3202L164.447 21.2951ZM163.76 48.6681C162.691 50.8549 161.189 52.5893 159.267 53.8336C157.333 55.0903 155.068 55.7187 152.472 55.7187C149.875 55.7187 147.508 55.0903 145.548 53.8336C143.588 52.5768 142.074 50.8549 141.005 48.6681C139.936 46.4813 139.401 43.93 139.401 41.0268C139.401 38.1236 139.936 35.6603 141.005 33.4734C142.074 31.2866 143.588 29.5522 145.548 28.308C147.508 27.0512 149.812 26.4228 152.472 26.4228C155.131 26.4228 157.333 27.0512 159.267 28.308C161.202 29.5648 162.704 31.2866 163.76 33.4734C164.829 35.6603 165.363 38.1864 165.363 41.0268C165.363 43.8671 164.829 46.4813 163.76 48.6681Z"/>
    <path d="M220.137 21.3333C216.939 19.3723 213.353 18.3918 209.393 18.3918C206.332 18.3918 203.558 19.0285 201.072 20.2892C198.585 21.5625 196.537 23.2943 194.962 25.4845C194.612 25.9557 194.313 26.4523 194.025 26.9616L192.826 20.0854C192.788 19.8944 192.638 19.7671 192.451 19.7671H184.967C184.755 19.7671 184.593 19.9454 184.593 20.1491V79.3609C184.593 79.5774 184.767 79.7429 184.967 79.7429H193.713C193.925 79.7429 194.088 79.5646 194.088 79.3609V58.1593C194.088 57.79 194.538 57.6244 194.762 57.9173C195.987 59.5345 197.511 60.8843 199.36 61.9666C202.084 63.5584 205.307 64.3478 209.043 64.3478C213.116 64.3478 216.776 63.3673 220 61.4064C223.223 59.4454 225.784 56.7331 227.683 53.2695C229.582 49.8059 230.532 45.8203 230.532 41.3253C230.532 36.8303 229.595 32.9338 227.733 29.4702C225.872 26.0066 223.335 23.2943 220.137 21.3333ZM218.9 49.0292C217.763 51.283 216.202 53.0403 214.19 54.3137C212.179 55.587 209.792 56.2237 207.019 56.2237C204.695 56.2237 202.546 55.7398 200.559 54.7466C198.573 53.7661 196.961 52.4163 195.724 50.6846C195.05 49.7423 194.525 48.7236 194.138 47.6285C194.125 47.5775 194.113 47.5393 194.113 47.4884V42.0384C194.113 38.9186 194.687 36.2063 195.849 33.9015C197.011 31.5967 198.598 29.7885 200.609 28.4897C202.621 27.1908 204.92 26.5414 207.531 26.5414C210.142 26.5414 212.503 27.1781 214.452 28.4515C216.401 29.7249 217.926 31.4821 219 33.736C220.075 35.9898 220.612 38.5239 220.612 41.3507C220.612 44.1776 220.05 46.8008 218.913 49.0546L218.9 49.0292Z"/>
    <path d="M273.604 21.2967C270.075 19.3601 266.028 18.3918 261.436 18.3918C256.845 18.3918 252.886 19.3601 249.357 21.2967C245.828 23.2332 243.071 25.9117 241.06 29.332C239.048 32.7524 238.049 36.6507 238.049 41.0393C238.049 45.428 239.048 49.4142 241.06 52.8346C243.071 56.255 245.828 58.9335 249.357 60.87C252.886 62.8066 256.908 63.7748 261.436 63.7748C265.965 63.7748 270.075 62.8066 273.604 60.87C277.133 58.9335 279.878 56.255 281.851 52.8346C283.825 49.4142 284.824 45.4783 284.824 41.0393C284.824 36.6004 283.837 32.7524 281.851 29.332C279.878 25.9117 277.121 23.2332 273.604 21.2967ZM273.174 48.6849C272.061 50.8729 270.493 52.6083 268.482 53.8532C266.471 55.1107 264.131 55.7394 261.436 55.7394C258.742 55.7394 256.478 55.1107 254.48 53.8532C252.469 52.5957 250.913 50.8729 249.8 48.6849C248.687 46.4968 248.117 43.9441 248.117 41.0393C248.117 38.1345 248.674 35.6698 249.8 33.4818C250.913 31.2937 252.481 29.5584 254.48 28.3135C256.491 27.056 258.806 26.4272 261.436 26.4272C264.067 26.4272 266.483 27.056 268.482 28.3135C270.48 29.571 272.049 31.2937 273.174 33.4818C274.287 35.6698 274.857 38.1974 274.857 41.0393C274.857 43.8813 274.3 46.4968 273.174 48.6849Z"/>
    <path d="M311.935 62.9342H320.894C321.111 62.9342 321.278 62.7585 321.278 62.5577V10.8943C321.278 10.681 321.456 10.5179 321.661 10.5179H346.25C346.467 10.5179 346.633 10.3422 346.633 10.1414V1.9596C346.633 1.74627 346.454 1.58313 346.25 1.58313H311.935C311.718 1.58313 311.552 1.75881 311.552 1.9596V62.5577C311.552 62.7711 311.731 62.9342 311.935 62.9342Z"/>
    <path d="M352.878 49.9822C352.764 51.8144 352.32 53.1033 351.546 53.8488C350.772 54.5944 349.605 54.9608 348.058 54.9608H345.343C345.127 54.9608 344.962 55.1377 344.962 55.3399V62.5551C344.962 62.7699 345.14 62.9342 345.343 62.9342H349.694C353.601 62.9342 356.506 62.1255 358.409 60.4828C360.299 58.8527 361.453 55.9717 361.859 51.8523L364.155 28.2354C364.18 28.0333 364.345 27.8943 364.535 27.8943H378.375C378.59 27.8943 378.755 28.0712 378.755 28.2733V62.5425C378.755 62.7573 378.933 62.9216 379.136 62.9216H388.015C388.231 62.9216 388.396 62.7447 388.396 62.5425V20.4516C388.396 20.2368 388.218 20.0725 388.015 20.0725H355.986C355.783 20.0725 355.618 20.2241 355.605 20.4263L352.878 49.9696V49.9822Z"/>
    <path d="M427.855 20.5172C424.76 19.096 421.18 18.3917 417.079 18.3917C413.206 18.3917 409.69 19.0575 406.519 20.3892C403.462 21.6696 400.787 23.4366 398.481 25.6902C398.328 25.8438 398.328 26.0871 398.468 26.2407L403.474 31.7338C403.627 31.9002 403.882 31.9002 404.035 31.7338C405.589 30.0308 407.423 28.6864 409.512 27.7004C411.729 26.6505 414.149 26.1383 416.747 26.1383C420.327 26.1383 423.155 27.0474 425.231 28.8784C427.167 30.5814 428.186 32.899 428.326 35.8183C428.326 36.036 428.148 36.2409 427.932 36.2409H417.27C413.232 36.2409 409.665 36.8043 406.582 37.9438C403.487 39.0706 401.079 40.6968 399.347 42.8223C397.615 44.935 396.749 47.5086 396.749 50.5176C396.749 53.2962 397.436 55.7418 398.825 57.8289C400.213 59.916 402.175 61.5677 404.71 62.7841C407.245 64.0005 410.162 64.6151 413.448 64.6151C417.142 64.6151 420.429 63.8469 423.32 62.3104C425.18 61.3244 426.76 60.0824 428.097 58.5843C428.339 58.3154 428.772 58.4691 428.772 58.8276V62.8225C428.772 63.0402 428.951 63.2067 429.154 63.2067H437.294C437.511 63.2067 437.676 63.0274 437.676 62.8225V36.2281C437.676 32.5148 436.81 29.3266 435.078 26.6505C433.345 23.9872 430.938 21.9385 427.842 20.5172H427.855ZM422.276 55.5497C420.199 56.5997 417.919 57.1118 415.435 57.1118C412.951 57.1118 410.735 56.4844 409.117 55.2424C407.5 54.0004 406.697 52.2974 406.697 50.1463C406.697 47.7647 407.754 45.9721 409.856 44.7557C411.958 43.5393 414.722 42.9247 418.123 42.9247H427.957C428.174 42.9247 428.339 43.104 428.339 43.3088V49.1092C428.339 49.1092 428.339 49.2244 428.301 49.2756C428.008 49.9542 427.677 50.6201 427.256 51.2347C426.021 53.0657 424.352 54.4998 422.276 55.5497Z"/>
    <path d="M448.913 62.9216H457.744C457.958 62.9216 458.122 62.7446 458.122 62.5424V28.2631C458.122 28.0482 458.299 27.8839 458.5 27.8839H479.061C479.276 27.8839 479.439 27.707 479.439 27.5047V20.4517C479.439 20.2368 479.263 20.0725 479.061 20.0725H448.913C448.698 20.0725 448.535 20.2495 448.535 20.4517V62.555C448.535 62.7699 448.711 62.9342 448.913 62.9342V62.9216Z"/>
    <path d="M519.171 21.3503C515.642 19.3779 511.594 18.3917 507.003 18.3917C502.411 18.3917 498.452 19.3779 494.923 21.3503C491.395 23.3227 488.637 26.0508 486.626 29.5345C484.615 33.0183 483.616 36.9887 483.616 41.4586C483.616 45.9285 484.615 49.9886 486.626 53.4723C488.637 56.9561 491.395 59.6841 494.923 61.6565C498.452 63.6289 502.475 64.6151 507.003 64.6151C511.531 64.6151 515.642 63.6289 519.171 61.6565C522.7 59.6841 525.445 56.9561 527.418 53.4723C529.391 49.9886 530.39 45.9798 530.39 41.4586C530.39 36.9374 529.404 33.0183 527.418 29.5345C525.445 26.0508 522.687 23.3227 519.171 21.3503ZM518.741 49.2458C517.628 51.4743 516.059 53.2418 514.061 54.5098C512.05 55.7905 509.71 56.4309 507.016 56.4309C504.321 56.4309 502.057 55.7905 500.046 54.5098C498.035 53.229 496.479 51.4743 495.366 49.2458C494.253 47.0172 493.684 44.4172 493.684 41.4586C493.684 38.5 494.24 35.9897 495.366 33.7611C496.492 31.5325 498.048 29.7651 500.046 28.4971C502.045 27.2291 504.372 26.5759 507.016 26.5759C509.659 26.5759 512.062 27.2163 514.061 28.4971C516.072 29.7779 517.628 31.5325 518.741 33.7611C519.854 35.9897 520.423 38.564 520.423 41.4586C520.423 44.3532 519.867 47.0172 518.741 49.2458Z"/>
    <path d="M542.482 49.9822C542.368 51.8144 541.924 53.1033 541.15 53.8488C540.376 54.5944 539.209 54.9608 537.662 54.9608H534.947C534.731 54.9608 534.566 55.1377 534.566 55.3399V62.5551C534.566 62.7699 534.744 62.9342 534.947 62.9342H539.298C543.205 62.9342 546.11 62.1255 548.013 60.4828C549.903 58.8527 551.057 55.9717 551.463 51.8523L553.759 28.2354C553.784 28.0333 553.949 27.8943 554.139 27.8943H567.979C568.194 27.8943 568.359 28.0712 568.359 28.2733V62.5425C568.359 62.7573 568.537 62.9216 568.74 62.9216H577.619C577.835 62.9216 578 62.7447 578 62.5425V20.4516C578 20.2368 577.822 20.0725 577.619 20.0725H545.59C545.387 20.0725 545.222 20.2241 545.209 20.4263L542.482 49.9696V49.9822Z"/>
  </g>
</svg>
